#!OML:ASF I:\Actors\actors\Patient Classification 1\Patient 1\Session 1\Subject1.ASF
:FULLY-SPECIFIED
:DEGREES
918
root -0.44211 17.5913 7.81318 6.31311 1.29653 -7.02861
lowerback 2.85778 0.117212 3.85906
upperback -9.45764 0.587762 0.817637
thorax -11.7345 -0.0235274 -1.3489
lowerneck -12.639 -4.28553 -2.52482
upperneck 25.2005 -7.60563 7.67495
head 10.5692 -2.86945 2.17677
rclavicle 6.26172e-015 -7.95139e-016
rhumerus -40.2366 30.6609 -96.566
rradius 125.036
rwrist 13.4788
rhand -2.36666 -24.1223
rfingers 7.12502
rthumb 23.3217 -52.7296
lclavicle 6.26172e-015 -7.95139e-016
lhumerus -41.9308 -35.9596 94.1829
lradius 130.491
lwrist -11.4307
lhand -26.2872 -41.7315
lfingers 7.12502
lthumb 0.268365 -11.7519
rfemur -0.915716 21.6404 25.9022
rtibia 4.16113
rfoot -13.3852 -23.3089
rtoes 1.5276
lfemur 184.391 213.996 165.996
ltibia -2.29509
lfoot 350.547 -321.678
ltoes -5.64216
919
root -0.438129 17.5919 7.78801 6.18305 1.32868 -7.02393
lowerback 2.93727 0.0622481 3.76155
upperback -9.31475 0.511921 0.898888
thorax -11.6224 -0.043123 -1.19802
lowerneck -12.7135 -4.25961 -2.51925
upperneck 24.911 -7.54163 7.67253
head 10.473 -2.84564 2.17899
rclavicle 7.15625e-015 -2.78299e-015
rhumerus -37.366 33.2699 -95.2896
rradius 124.539
rwrist 14.3559
rhand -1.6621 -24.1094
rfingers 7.12502
rthumb 23.9974 -52.6294
lclavicle 7.15625e-015 -2.78299e-015
lhumerus -39.1816 -39.155 93.0768
lradius 129.83
lwrist -12.0621
lhand -27.202 -41.9978
lfingers 7.12502
lthumb -0.615176 -12.0189
rfemur -0.856918 21.6801 25.9093
rtibia 4.16729
rfoot -13.3638 -23.3849
rtoes 1.55415
lfemur 184.449 214.024 165.953
ltibia -2.3057
lfoot 350.612 -321.724
ltoes -5.57063
920
root -0.433758 17.5928 7.76122 6.09178 1.28694 -7.02118
lowerback 3.1016 0.039049 3.69788
upperback -9.18756 0.484472 0.956797
thorax -11.5781 -0.0453667 -1.09771
lowerneck -12.7893 -4.24225 -2.48163
upperneck 24.5298 -7.4874 7.66382
head 10.3433 -2.82647 2.1713
rclavicle -2.68359e-015 2.78299e-014
rhumerus -34.3469 35.401 -93.6355
rradius 123.98
rwrist 15.2616
rhand -0.872491 -24.0433
rfingers 7.12502
rthumb 24.7544 -52.4615
lclavicle -2.68359e-015 2.78299e-014
lhumerus -36.1216 -41.7189 91.3563
lradius 128.997
lwrist -12.7701
lhand -28.4358 -42.4175
lfingers 7.12502
lthumb -1.80681 -12.4454
rfemur -0.884909 21.6883 25.8794
rtibia 4.21269
rfoot -13.3137 -23.3574
rtoes 1.50876
lfemur 184.457 213.991 165.936
ltibia -2.31143
lfoot 350.676 -321.753
ltoes -5.51358
921
root -0.42952 17.5944 7.73368 6.03053 1.21126 -7.02666
lowerback 3.35793 0.0318852 3.67601
upperback -9.08144 0.485816 0.995445
thorax -11.6133 -0.0401951 -1.04531
lowerneck -12.8421 -4.22445 -2.42233
upperneck 24.0493 -7.43019 7.66069
head 10.1733 -2.80669 2.16193
rclavicle -6.55989e-015 -4.77083e-015
rhumerus -31.2386 37.104 -91.7212
rradius 123.36
rwrist 15.9791
rhand -0.108443 -24.0976
rfingers 7.12502
rthumb 25.4865 -52.4132
lclavicle -6.55989e-015 -4.77083e-015
lhumerus -32.8036 -43.6269 89.1271
lradius 127.971
lwrist -13.4696
lhand -30.0823 -43.1329
lfingers 7.12502
lthumb -3.3969 -13.1802
rfemur -0.969057 21.6861 25.838
rtibia 4.28144
rfoot -13.2507 -23.2848
rtoes 1.43221
lfemur 184.416 213.902 165.961
ltibia -2.31289
lfoot 350.762 -321.795
ltoes -5.53203
922
root -0.425381 17.5964 7.70575 6.00127 1.13138 -7.04182
lowerback 3.6874 0.0240747 3.69556
upperback -8.99243 0.493265 1.02237
thorax -11.7133 -0.037734 -1.02955
lowerneck -12.8833 -4.19803 -2.35892
upperneck 23.4851 -7.36024 7.68058
head 9.97258 -2.78081 2.16133
rclavicle 3.57812e-015 -5.1684e-015
rhumerus -28.0392 38.4211 -89.6083
rradius 122.646
rwrist 16.2816
rhand 0.639336 -24.2833
rfingers 7.12502
rthumb 26.2026 -52.4946
lclavicle 3.57812e-015 -5.1684e-015
lhumerus -29.3068 -44.8839 86.5194
lradius 126.727
lwrist -14.0866
lhand -32.1261 -44.1778
lfingers 7.12502
lthumb -5.37047 -14.2658
rfemur -1.09856 21.6838 25.7929
rtibia 4.36095
rfoot -13.1891 -23.2059
rtoes 1.36021
lfemur 184.315 213.785 166.032
ltibia -2.30525
lfoot 350.869 -321.849
ltoes -5.62137
923
root -0.421161 17.5984 7.67735 6.00272 1.06283 -7.07034
lowerback 4.05309 0.00277409 3.75001
upperback -8.89967 0.487696 1.04796
thorax -11.8322 -0.0451003 -1.03296
lowerneck -12.9418 -4.15683 -2.28437
upperneck 22.8534 -7.26846 7.71055
head 9.75188 -2.74431 2.16451
rclavicle -2.98177e-015 -2.38542e-015
rhumerus -24.7013 39.3987 -87.3289
rradius 121.774
rwrist 16.1542
rhand 1.40209 -24.5712
rfingers 7.12502
rthumb 26.9326 -52.672
lclavicle -2.98177e-015 -2.38542e-015
lhumerus -25.6906 -45.522 83.6563
lradius 125.23
lwrist -14.6066
lhand -34.405 -45.4367
lfingers 7.12502
lthumb -7.57048 -15.5922
rfemur -1.26627 21.6866 25.7507
rtibia 4.44261
rfoot -13.1352 -23.1407
rtoes 1.31436
lfemur 184.155 213.667 166.151
ltibia -2.28372
lfoot 350.987 -321.907
ltoes -5.74264
924
root -0.416846 17.6001 7.64822 6.02067 1.00895 -7.11382
lowerback 4.4247 -0.039659 3.82109
upperback -8.77474 0.455921 1.08368
thorax -11.9194 -0.0652037 -1.03102
lowerneck -13.0368 -4.09565 -2.19017
upperneck 22.1634 -7.14695 7.7371
head 9.51724 -2.69356 2.16607
rclavicle -4.07509e-015 9.54166e-015
rhumerus -21.1555 40.0764 -84.8969
rradius 120.671
rwrist 15.7212
rhand 2.25829 -24.9084
rfingers 7.12502
rthumb 27.7516 -52.88
lclavicle -4.07509e-015 9.54166e-015
lhumerus -22.0043 -45.5988 80.6595
lradius 123.444
lwrist -15.0566
lhand -36.7315 -46.6786
lfingers 7.12502
lthumb -9.81562 -16.9274
rfemur -1.45378 21.6982 25.7193
rtibia 4.52054
rfoot -13.0853 -23.0992
rtoes 1.28638
lfemur 183.959 213.561 166.306
ltibia -2.24831
lfoot 351.102 -321.964
ltoes -5.85697
925
root -0.412558 17.6014 7.61786 6.03881 0.961148 -7.16118
lowerback 4.80547 -0.101121 3.88479
upperback -8.60787 0.39832 1.13055
thorax -11.9652 -0.095279 -1.00902
lowerneck -13.1712 -4.01594 -2.0739
upperneck 21.4348 -6.9974 7.74708
head 9.27603 -2.62998 2.16097
rclavicle 4.57205e-015 -1.35174e-014
rhumerus -17.3965 40.4611 -82.368
rradius 119.275
rwrist 15.1809
rhand 3.31308 -25.2238
rfingers 7.12502
rthumb 28.7597 -53.0286
lclavicle 4.57205e-015 -1.35174e-014
lhumerus -18.3235 -45.2099 77.6654
lradius 121.354
lwrist -15.4196
lhand -38.9501 -47.6486
lfingers 7.12502
lthumb -11.9556 -18.01
rfemur -1.64457 21.7173 25.6918
rtibia 4.59387
rfoot -13.03 -23.0773
rtoes 1.2368
lfemur 183.751 213.454 166.473
ltibia -2.20251
lfoot 351.223 -322.031
ltoes -5.96905
926
root -0.408345 17.6025 7.58611 6.04864 0.906914 -7.19595
lowerback 5.19889 -0.173387 3.91917
upperback -8.39722 0.323194 1.1841
thorax -11.969 -0.129538 -0.960595
lowerneck -13.3443 -3.92427 -1.93384
upperneck 20.6872 -6.82694 7.71967
head 9.03455 -2.55845 2.14122
rclavicle 7.65321e-015 -1.82882e-014
rhumerus -13.4997 40.5633 -79.8548
rradius 117.54
rwrist 14.8091
rhand 4.55149 -25.4952
rfingers 7.12502
rthumb 29.9421 -53.0929
lclavicle 7.65321e-015 -1.82882e-014
lhumerus -14.6876 -44.4721 74.7796
lradius 118.955
lwrist -15.6093
lhand -40.943 -48.1752
lfingers 7.12502
lthumb -13.8767 -18.6582
rfemur -1.83176 21.7323 25.6503
rtibia 4.6651
rfoot -12.959 -23.0542
rtoes 1.12517
lfemur 183.545 213.329 166.623
ltibia -2.14858
lfoot 351.355 -322.118
ltoes -6.08437
927
root -0.404263 17.6038 7.55304 6.05338 0.831758 -7.21519
lowerback 5.6257 -0.240692 3.93129
upperback -8.16543 0.25305 1.23169
thorax -11.9686 -0.159391 -0.906529
lowerneck -13.5349 -3.83148 -1.76783
upperneck 19.9432 -6.65248 7.64744
head 8.79727 -2.48738 2.1026
rclavicle 4.27387e-015 -7.55382e-015
rhumerus -9.5275 40.4673 -77.4469
rradius 115.462
rwrist 14.6967
rhand 5.8864 -25.8179
rfingers 7.12502
rthumb 31.2151 -53.1782
lclavicle 4.27387e-015 -7.55382e-015
lhumerus -11.121 -43.5335 72.0836
lradius 116.245
lwrist -15.5431
lhand -42.6226 -48.268
lfingers 7.12502
lthumb -15.4949 -18.8689
rfemur -2.02435 21.7333 25.5875
rtibia 4.74113
rfoot -12.868 -23.0035
rtoes 0.941843
lfemur 183.346 213.189 166.75
ltibia -2.0878
lfoot 351.485 -322.211
ltoes -6.18261
